<?xml version="1.0" encoding="utf-8"?>
<!-- Generator: Adobe Illustrator 22.1.0, SVG Export Plug-In . SVG Version: 6.00 Build 0)  -->
<svg version="1.1" id="Layer_1" xmlns="http://www.w3.org/2000/svg" xmlns:xlink="http://www.w3.org/1999/xlink" x="0px" y="0px"
	 viewBox="0 0 91 22" style="enable-background:new 0 0 91 22;" xml:space="preserve">
<style type="text/css">
	.st0{fill:#3f51b5;}
	.st1{fill:#3f51b5;stroke:#3f51b5;stroke-width:0.4778;stroke-miterlimit:10;}
</style>
<path class="st0" d="M87.8,2.7c0.5,0,0.9,0.4,0.9,0.9s-0.4,0.9-0.9,0.9s-0.9-0.4-0.9-0.9C86.9,3.1,87.3,2.7,87.8,2.7L87.8,2.7z
	 M87.8,2.8c-0.4,0-0.7,0.3-0.7,0.8c0,0.4,0.3,0.8,0.7,0.8c0.4,0,0.7-0.3,0.7-0.8C88.5,3.1,88.2,2.8,87.8,2.8L87.8,2.8L87.8,2.8z
	 M87.6,4.1h-0.2v-1c0.1,0,0.2,0,0.3,0c0.2,0,0.3,0,0.3,0.1c0.1,0,0.1,0,0.1,0.1c0,0.1-0.1,0.2-0.2,0.2l0,0c0.1,0,0.1,0.1,0.2,0.2
	c0,0.3,0,0.4,0.1,0.4H88c0,0,0-0.1-0.1-0.3c0-0.1-0.1-0.2-0.2-0.2h-0.1L87.6,4.1L87.6,4.1z M87.6,3.5L87.6,3.5c0.2,0,0.3,0,0.3-0.2
	c0-0.1-0.1-0.2-0.2-0.2s-0.1,0-0.1,0V3.5z"/>
<path class="st1" d="M2.2,10.1C2.2,10.1,2.1,10.1,2.2,10.1c-0.1,0-0.1,0-0.1-0.1s0.1-0.3,0.1-0.5S2.3,9.1,2.3,9
	c0-0.2,0.1-0.3,0.3-0.4C3.1,8.4,3.5,8.2,4.1,8c0.5-0.2,1-0.4,1.6-0.5c1-0.2,2-0.3,3-0.3c1.3,0,2.3,0.1,3,0.4s1.1,0.8,1.1,1.5
	c0,0.4-0.1,0.7-0.4,1.1c-0.2,0.4-0.6,0.7-1,1.1c-0.4,0.3-0.9,0.6-1.6,0.8c-0.6,0.2-1.3,0.4-2,0.5c-0.1,0-0.2,0.1-0.1,0.2
	C8,13.4,8.4,14.1,9,15c0.5,0.9,1.2,1.8,1.9,2.7c0.4,0.5,0.8,1,1.2,1.4c0.5,0.5,0.9,0.9,1.5,1.2c0.5,0.4,1.1,0.6,1.7,0.8
	c0.6,0.2,1.2,0.3,1.9,0.3c1,0,2-0.3,2.9-0.8c0.1-0.1,0.1,0,0.1,0c0,0.1,0,0.1-0.1,0.1c-0.5,0.3-1.1,0.5-1.6,0.7
	c-0.6,0.2-1.2,0.3-1.8,0.3c-0.9,0-1.8-0.1-2.5-0.3c-0.7-0.2-1.4-0.5-1.9-0.9c-0.6-0.4-1.2-0.9-1.7-1.5s-1.1-1.4-1.7-2.3
	c-0.2-0.3-0.4-0.6-0.6-1c-0.2-0.4-0.5-0.8-0.7-1.2s-0.5-0.8-0.7-1.2s-0.4-0.7-0.6-0.9c0-0.1,0-0.1,0.1-0.1c0.7,0,1.4-0.1,2-0.2
	C9,12,9.5,11.8,10,11.5s0.8-0.6,1.1-1s0.4-0.9,0.4-1.5c0-0.2,0-0.4-0.1-0.6C11.3,8.2,11.2,8,11,7.8s-0.4-0.3-0.7-0.4
	C9.8,7.6,9.4,7.5,8.9,7.5c-0.2,0-0.3,0-0.5,0.1C8.2,7.6,8.1,7.7,8,7.9C7.9,8,7.6,8.4,7.3,8.9S6.6,10,6.2,10.6
	C5.8,11.3,5.4,12,5,12.7c-0.4,0.7-0.8,1.5-1.2,2.2s-0.7,1.3-1,1.9s-0.5,1-0.7,1.3c0,0,0,0-0.1,0c-0.1,0-0.2,0-0.2,0
	c-0.1,0-0.2,0-0.2,0c-0.1,0-0.2,0-0.3,0s-0.2,0-0.4,0c-0.2,0.1-0.4,0.3-0.6,0.5H0.2c0,0,0,0,0-0.1C1.7,16.3,3,14.3,4,12.6
	s1.9-3.3,2.7-4.7c0-0.1,0.1-0.2,0-0.2c0,0-0.1,0-0.2,0C6,7.7,5.5,7.8,5,8C4.5,8.1,4.1,8.3,3.6,8.5C3.4,8.7,3.1,8.9,2.8,9.2
	C2.6,9.4,2.4,9.7,2.2,10.1z"/>
<path class="st1" d="M18.5,15.2c-0.3,0.3-0.6,0.7-1,1.1c-0.4,0.4-0.8,0.7-1.3,1s-0.9,0.5-1.4,0.7s-1,0.3-1.4,0.3
	c-0.8,0-1.2-0.3-1.2-1c0-0.5,0.1-1,0.4-1.5c0.2-0.5,0.5-1,0.9-1.5s0.8-0.8,1.2-1.1c0.5-0.3,0.9-0.5,1.3-0.5c0.2,0,0.4,0,0.5,0.1
	s0.1,0.2,0.1,0.3c0,0.2-0.1,0.4-0.2,0.6c-0.1,0.2-0.3,0.4-0.6,0.7c-0.2,0.2-0.6,0.4-0.9,0.5c-0.4,0.1-0.8,0.2-1.4,0.2
	c-0.1,0.1-0.2,0.4-0.3,0.7c-0.1,0.3-0.1,0.6-0.1,1c0,0.7,0.3,1,0.9,1c0.4,0,0.8-0.1,1.2-0.3c0.4-0.2,0.8-0.4,1.2-0.7
	c0.4-0.3,0.7-0.6,1-0.9c0.3-0.3,0.6-0.6,0.8-0.9C18.4,15.1,18.4,15.1,18.5,15.2C18.5,15.1,18.5,15.2,18.5,15.2z M16,13.3
	c0-0.2-0.1-0.3-0.3-0.3s-0.3,0.1-0.5,0.2c-0.2,0.1-0.3,0.3-0.5,0.5s-0.3,0.4-0.5,0.6c-0.1,0.2-0.3,0.5-0.4,0.7c0,0,0.1,0,0.2,0
	c0.1,0,0.1,0,0.2,0c0.5,0,0.9-0.2,1.3-0.5C15.8,14.2,16,13.8,16,13.3z"/>
<path class="st1" d="M26,14.8c-0.4,0.5-0.8,0.9-1.2,1.4c-0.5,0.5-0.9,0.9-1.4,1.3s-0.9,0.7-1.4,0.9c-0.5,0.2-0.9,0.3-1.2,0.3
	c-0.3,0-0.6-0.1-0.7-0.2c-0.1-0.2-0.2-0.4-0.2-0.6s0.1-0.5,0.2-0.9s0.3-0.8,0.6-1.2c-0.2,0.3-0.5,0.6-0.7,0.9
	c-0.3,0.3-0.6,0.6-0.9,0.8c-0.3,0.3-0.6,0.5-0.9,0.6c-0.3,0.2-0.6,0.3-0.8,0.3c-0.3,0-0.5-0.2-0.5-0.5c0-0.4,0.1-0.9,0.4-1.4
	c0.3-0.6,0.7-1.1,1.2-1.7c0.5-0.5,1.1-1,1.7-1.4s1.3-0.6,2-0.6c0.1-0.2,0.2-0.3,0.2-0.3c0.1-0.1,0.1-0.1,0.2-0.1l0.7-0.2l0,0
	c-0.1,0.1-0.2,0.2-0.2,0.3c-0.1,0.1-0.2,0.2-0.2,0.4c0.1,0,0.2,0,0.4,0c0.2,0,0.3,0,0.4,0s0.1,0.1,0.1,0.1s0,0.1-0.1,0.1
	S23.5,13,23.3,13c-0.2,0-0.3,0-0.4,0c-0.8,1.3-1.3,2.4-1.7,3.2c-0.4,0.8-0.5,1.4-0.5,1.7c0,0.1,0,0.3,0.1,0.4s0.2,0.1,0.5,0.1
	s0.6-0.1,0.9-0.3c0.4-0.2,0.7-0.5,1.2-0.8c0.4-0.3,0.8-0.7,1.3-1.2C25.1,15.7,25.5,15.2,26,14.8C25.9,14.7,26,14.6,26,14.8
	C26,14.7,26,14.7,26,14.8z M22.2,12.9c-0.6,0-1.1,0.2-1.6,0.6c-0.5,0.4-1,0.9-1.4,1.4s-0.7,1.1-0.9,1.6c-0.2,0.5-0.4,0.9-0.4,1.2
	c0,0.1,0,0.2,0.1,0.2s0.2-0.1,0.5-0.2c0.2-0.1,0.4-0.3,0.7-0.5c0.3-0.2,0.5-0.5,0.8-0.8s0.5-0.6,0.7-1c0.3-0.4,0.5-0.8,0.8-1.3
	C21.8,13.7,22,13.3,22.2,12.9L22.2,12.9z"/>
<path class="st1" d="M36.4,2.1c0,0.2-0.1,0.6-0.3,1s-0.4,1-0.8,1.5c-0.3,0.6-0.7,1.2-1.2,1.9s-1,1.3-1.6,2c-0.6,0.7-1.3,1.3-2,1.9
	C29.8,11,29,11.5,28.1,12c-0.1,0.3-0.4,0.6-0.6,1.1c-0.3,0.4-0.5,0.9-0.8,1.4s-0.5,1-0.7,1.5s-0.3,0.9-0.3,1.2
	c0,0.5,0.2,0.8,0.7,0.8c0.4,0,0.8-0.1,1.3-0.3c0.4-0.2,0.9-0.5,1.3-0.8s0.8-0.7,1.1-1c0.4-0.4,0.7-0.7,0.9-1
	c0.1-0.1,0.2-0.1,0.2-0.1c0,0.1,0,0.1-0.1,0.2c-0.3,0.4-0.6,0.7-1,1.2c-0.4,0.4-0.8,0.8-1.3,1.1c-0.5,0.3-0.9,0.6-1.4,0.9
	c-0.5,0.2-1,0.3-1.5,0.3c-0.4,0-0.7-0.1-0.9-0.3c-0.2-0.2-0.3-0.5-0.3-0.7c0-0.3,0.1-0.7,0.4-1.3c0.3-0.5,0.6-1.1,0.9-1.7
	c0.3-0.6,0.7-1.2,1-1.7s0.6-1,0.8-1.2c0.3-0.5,0.6-1,0.9-1.5s0.6-1,0.9-1.5s0.6-1,0.8-1.4c0.3-0.5,0.5-0.8,0.7-1.2
	c0.3-0.4,0.6-0.8,0.9-1.2c0.3-0.4,0.7-0.8,1.1-1.1c0.6-0.5,1.2-0.9,1.7-1.2s0.9-0.4,1.1-0.4c0.1,0,0.2,0,0.3,0.1
	C36.3,1.9,36.4,2,36.4,2.1z M35.2,2.8c0-0.3-0.1-0.4-0.3-0.4c-0.1,0-0.2,0-0.3,0.1c-0.1,0-0.2,0.2-0.4,0.3c-0.1,0.1-0.3,0.3-0.5,0.6
	S33.2,4,32.9,4.5c-0.1,0.2-0.3,0.4-0.6,0.8c-0.2,0.3-0.5,0.8-0.9,1.3s-0.8,1.3-1.3,2.1s-1.1,1.8-1.8,2.9c1-0.6,1.9-1.2,2.8-2
	C32,8.8,32.7,8,33.3,7.2c0.6-0.8,1.1-1.6,1.5-2.4C35.1,4,35.2,3.3,35.2,2.8z"/>
<path class="st1" d="M59.9,6.1c0.1,0.1,0.1,0.1,0,0.2c0,0-0.1,0-0.2,0h-0.1c-0.2,0-0.4,0-0.7,0.1c-0.4,0.1-0.8,0.3-1.4,0.7
	s-1.3,1-2.2,1.8s-2,1.9-3.2,3.4c-0.3,0.4-0.7,0.8-1.1,1.3c-0.4,0.5-0.9,1.1-1.3,1.6c-0.4,0.5-0.8,1-1.2,1.5s-0.6,0.9-0.8,1.2
	c0,0.1-0.1,0.1-0.1,0.2c-0.1,0.1-0.1,0.1-0.2,0.1c-0.2,0-0.4,0.1-0.6,0.2c-0.2,0.1-0.4,0.2-0.5,0.3c-0.1,0-0.2-0.1,0-0.2
	c0,0,0.1-0.2,0.1-0.6c0-0.3,0.1-0.7,0.1-1.2s0.1-1,0.1-1.6s0-1.2,0-1.8s0-1.2,0-1.7c0-0.6,0-1,0-1.5c0-0.2-0.1-0.3-0.2-0.3
	c0,0-0.1,0-0.2,0.1c-0.1,0.1-0.4,0.3-0.7,0.6s-0.7,0.7-1.2,1.1c-0.5,0.4-1,0.9-1.6,1.5c-0.6,0.5-1.2,1.1-1.7,1.7
	c-0.6,0.6-1.1,1.1-1.7,1.7c-0.5,0.6-1.1,1.1-1.5,1.6l-0.1,0.1l-0.1,0.1c-0.2,0-0.5,0-0.7,0.1s-0.4,0.1-0.5,0.2
	c-0.1,0-0.1-0.1-0.1-0.2c0.1-0.2,0.3-0.5,0.4-0.8c0.1-0.3,0.3-0.7,0.5-1.1c0.1-0.2,0.2-0.5,0.4-1s0.3-1,0.5-1.5
	c0.2-0.6,0.4-1.2,0.6-1.8c0.2-0.6,0.4-1.2,0.6-1.7c0.2-0.5,0.3-1,0.4-1.4c0.1-0.4,0.2-0.6,0.2-0.7c0-0.2-0.1-0.3-0.4-0.3
	c-0.2,0-0.5,0-0.7,0.1s-0.4,0.1-0.6,0.1c-0.1,0-0.1,0-0.1-0.1s0-0.1,0.1-0.1C39,8,39.6,7.8,40,7.7c0.4-0.1,0.7-0.2,0.9-0.2
	s0.3-0.1,0.4-0.1c0.1,0,0.1,0,0.1,0c0.1,0,0.1,0,0.1,0.1s0,0.1-0.1,0.1c0,0-0.1,0.1-0.2,0.3C41.1,8,41.1,8.2,41,8.3
	c-0.1,0.2-0.2,0.4-0.2,0.6c-0.1,0.2-0.2,0.4-0.2,0.6c-0.4,1.1-0.8,2.3-1.2,3.6s-0.8,2.5-1.1,3.7c0,0.2-0.1,0.3,0,0.3
	c0,0,0.1,0,0.1-0.1c0.7-0.7,1.5-1.4,2.3-2.2s1.7-1.6,2.5-2.4c0.9-0.8,1.7-1.6,2.5-2.4c0.8-0.8,1.6-1.5,2.3-2.1h0.1V8
	c-0.1,0-0.2,0.1-0.2,0.2c-0.1,0.1-0.1,0.2-0.1,0.3c0,0.3-0.1,0.6-0.1,1.1c0,0.4-0.1,0.9-0.1,1.4s0,1,0,1.5s0,1,0,1.5
	c0,0.8,0,1.4,0,1.9s0,0.9,0,1.2c0,0.1,0,0.2,0,0.2s0.1,0,0.1-0.1c0.3-0.4,0.6-0.7,1-1.2c0.4-0.4,0.7-0.8,1.1-1.3
	c0.4-0.4,0.7-0.9,1.1-1.3c0.4-0.4,0.7-0.8,1-1.2c0.4-0.4,0.8-0.9,1.2-1.4s0.9-0.9,1.3-1.4c0.5-0.5,0.9-0.9,1.3-1.3
	c0.4-0.4,0.8-0.8,1.2-1.1c0.3-0.3,0.6-0.5,1-0.8C58.2,6,58.6,5.8,59,5.8c0,0,0.1,0,0.2,0c0.1,0,0.2,0.1,0.3,0.1S59.7,6,59.8,6
	C59.9,6.1,59.9,6.1,59.9,6.1z"/>
<path class="st1" d="M58.3,15.2c-0.3,0.3-0.6,0.7-1,1.1c-0.4,0.4-0.8,0.7-1.3,1s-0.9,0.5-1.4,0.7s-1,0.3-1.4,0.3
	c-0.8,0-1.2-0.3-1.2-1c0-0.5,0.1-1,0.4-1.5c0.2-0.5,0.5-1,0.9-1.5s0.8-0.8,1.2-1.1c0.5-0.3,0.9-0.5,1.3-0.5c0.2,0,0.4,0,0.5,0.1
	s0.1,0.2,0.1,0.3c0,0.2-0.1,0.4-0.2,0.6c-0.1,0.2-0.3,0.4-0.6,0.7c-0.2,0.2-0.6,0.4-0.9,0.5c-0.4,0.1-0.8,0.2-1.4,0.2
	c-0.1,0.1-0.2,0.4-0.3,0.7c-0.1,0.3-0.1,0.6-0.1,1c0,0.7,0.3,1,0.9,1c0.4,0,0.8-0.1,1.2-0.3c0.4-0.2,0.8-0.4,1.2-0.7
	c0.4-0.3,0.7-0.6,1-0.9c0.3-0.3,0.6-0.6,0.8-0.9C58.2,15.1,58.2,15.1,58.3,15.2C58.3,15.1,58.3,15.2,58.3,15.2z M55.8,13.3
	c0-0.2-0.1-0.3-0.3-0.3s-0.3,0.1-0.5,0.2c-0.2,0.1-0.3,0.3-0.5,0.5s-0.3,0.4-0.5,0.6c-0.1,0.2-0.3,0.5-0.4,0.7c0,0,0.1,0,0.2,0
	c0.1,0,0.1,0,0.2,0c0.5,0,0.9-0.2,1.3-0.5C55.6,14.2,55.8,13.8,55.8,13.3z"/>
<path class="st1" d="M65.8,14.8c-0.4,0.5-0.8,0.9-1.2,1.4c-0.5,0.5-0.9,0.9-1.4,1.3s-0.9,0.7-1.4,0.9c-0.5,0.2-0.9,0.3-1.2,0.3
	s-0.6-0.1-0.7-0.2c-0.1-0.2-0.2-0.4-0.2-0.6s0.1-0.5,0.2-0.9c0.1-0.4,0.3-0.8,0.6-1.2c-0.2,0.3-0.5,0.6-0.7,0.9
	c-0.3,0.3-0.6,0.6-0.9,0.8c-0.3,0.3-0.6,0.5-0.9,0.6c-0.3,0.2-0.6,0.3-0.8,0.3c-0.3,0-0.5-0.2-0.5-0.5c0-0.4,0.1-0.9,0.4-1.4
	c0.3-0.6,0.7-1.1,1.2-1.7c0.5-0.5,1.1-1,1.7-1.4c0.6-0.4,1.3-0.6,2-0.6c0.1-0.2,0.2-0.3,0.2-0.3c0.1-0.1,0.1-0.1,0.2-0.1l0.7-0.2
	l0,0c-0.1,0.1-0.2,0.2-0.2,0.3c-0.1,0.1-0.2,0.2-0.2,0.4c0.1,0,0.2,0,0.4,0s0.3,0,0.4,0c0.1,0,0.1,0.1,0.1,0.1s0,0.1-0.1,0.1
	S63.3,13,63.1,13s-0.3,0-0.4,0c-0.8,1.3-1.3,2.4-1.7,3.2c-0.4,0.8-0.5,1.4-0.5,1.7c0,0.1,0,0.3,0.1,0.4s0.2,0.1,0.5,0.1
	s0.6-0.1,0.9-0.3c0.4-0.2,0.7-0.5,1.2-0.8c0.4-0.3,0.8-0.7,1.3-1.2c0.4-0.4,0.8-0.9,1.2-1.4C65.7,14.7,65.8,14.6,65.8,14.8
	C65.8,14.7,65.8,14.7,65.8,14.8z M62,12.9c-0.6,0-1.1,0.2-1.6,0.6c-0.5,0.4-1,0.9-1.4,1.4s-0.7,1.1-0.9,1.6
	c-0.2,0.5-0.4,0.9-0.4,1.2c0,0.1,0,0.2,0.1,0.2s0.2-0.1,0.5-0.2c0.2-0.1,0.4-0.3,0.7-0.5s0.5-0.5,0.8-0.8s0.5-0.6,0.7-1
	c0.3-0.4,0.5-0.8,0.8-1.3C61.6,13.7,61.8,13.3,62,12.9L62,12.9z"/>
<path class="st1" d="M76.1,2.1c0,0.2-0.1,0.6-0.3,1c-0.2,0.4-0.4,1-0.8,1.5c-0.3,0.6-0.7,1.2-1.2,1.9s-1,1.3-1.6,2s-1.3,1.3-2,1.9
	c-0.7,0.6-1.5,1.1-2.4,1.6c-0.1,0.3-0.4,0.6-0.6,1.1c-0.3,0.4-0.5,0.9-0.8,1.4s-0.5,1-0.7,1.5s-0.3,0.9-0.3,1.2
	c0,0.5,0.2,0.8,0.7,0.8c0.4,0,0.8-0.1,1.3-0.3c0.4-0.2,0.9-0.5,1.3-0.8s0.8-0.7,1.1-1c0.4-0.4,0.7-0.7,0.9-1
	c0.1-0.1,0.2-0.1,0.2-0.1c0,0.1,0,0.1-0.1,0.2c-0.3,0.4-0.6,0.7-1,1.2c-0.4,0.4-0.8,0.8-1.3,1.1c-0.5,0.3-0.9,0.6-1.4,0.9
	c-0.5,0.2-1,0.3-1.5,0.3c-0.4,0-0.7-0.1-0.9-0.3c-0.2-0.2-0.3-0.5-0.3-0.7c0-0.3,0.1-0.7,0.4-1.3c0.3-0.5,0.6-1.1,0.9-1.7
	c0.3-0.6,0.7-1.2,1-1.7s0.6-1,0.8-1.2c0.3-0.5,0.6-1,0.9-1.5s0.6-1,0.9-1.5s0.6-1,0.8-1.4c0.3-0.5,0.5-0.8,0.7-1.2
	c0.3-0.4,0.6-0.8,0.9-1.2C72,4.4,72.4,4,72.8,3.7c0.7-0.9,1.3-1.3,1.8-1.6s0.9-0.4,1.1-0.4c0.1,0,0.2,0,0.3,0.1
	C76.1,1.9,76.1,2,76.1,2.1z M75,2.8c0-0.3-0.1-0.4-0.3-0.4c-0.1,0-0.2,0-0.3,0.1c-0.1,0-0.2,0.2-0.4,0.3c-0.2,0.2-0.3,0.4-0.6,0.7
	c-0.2,0.3-0.5,0.6-0.8,1.1C72.5,4.8,72.3,5,72,5.4c-0.2,0.3-0.5,0.8-0.9,1.4s-0.8,1.3-1.3,2.1s-1.1,1.8-1.8,2.9c1-0.6,1.9-1.2,2.8-2
	s1.6-1.6,2.2-2.4c0.6-0.8,1.1-1.6,1.5-2.4C74.9,4,75,3.3,75,2.8z"/>
<path class="st1" d="M75.4,9.2c-0.1,0-0.3,0.1-0.4,0.2c-0.2,0.1-0.3,0.2-0.4,0.3c-0.4,0.5-0.7,1.1-1.1,1.6c-0.4,0.6-0.7,1.1-1,1.7h3
	l0.1,0.1v0.1c-0.1,0-0.3,0-0.6,0c-0.3,0-0.5,0-0.9,0c-0.3,0-0.6,0-1,0c-0.3,0-0.6,0-0.9,0c-0.5,0.8-0.8,1.5-1.1,2.1
	c-0.2,0.6-0.4,1.1-0.4,1.5c0,0.6,0.3,0.9,0.8,0.9c0.3,0,0.6-0.1,0.9-0.2s0.7-0.3,1.1-0.6h0.1c0,0.1,0,0.1,0,0.1
	c-0.6,0.4-1.1,0.6-1.5,0.8c-0.5,0.2-1,0.2-1.5,0.2c-0.3,0-0.5-0.1-0.7-0.2c-0.2-0.2-0.3-0.4-0.3-0.8c0-0.3,0.1-0.8,0.4-1.4
	s0.7-1.4,1.3-2.4c-0.2,0-0.4,0-0.7,0.1c-0.3,0-0.5,0-0.5,0c-0.1,0-0.1,0-0.1-0.1c0.1-0.1,0.2-0.2,0.3-0.3h1.3
	c0.1-0.2,0.3-0.5,0.5-0.8s0.4-0.6,0.5-0.9c0.2-0.3,0.4-0.6,0.6-0.9c0.2-0.3,0.4-0.6,0.5-0.8c0.2-0.1,0.4-0.2,0.7-0.3
	c0.4,0,0.7-0.1,1-0.2c0,0,0.1,0,0.1,0.1C75.5,9.1,75.4,9.1,75.4,9.2z"/>
<path class="st1" d="M90.7,1.9c0,0.3,0,0.5,0,0.6c0,0.1,0,0.2-0.1,0.3c0,0,0,0.1-0.1,0V2.7c0-0.1,0-0.3-0.1-0.5s-0.2-0.4-0.3-0.6
	c-0.2-0.2-0.4-0.4-0.7-0.5C89,1.1,88.6,1,88.1,1c-0.4,0-0.9,0.1-1.3,0.2c-0.5,0.1-0.9,0.4-1.5,0.7c-0.5,0.4-1.1,0.8-1.7,1.5
	c-0.6,0.6-1.2,1.4-2,2.4c-0.7,1-1.5,2.2-2.3,3.6s-1.7,3.1-2.7,5c0.1-0.1,0.3-0.2,0.5-0.4s0.5-0.4,0.8-0.6c0.3-0.2,0.6-0.4,0.9-0.5
	s0.5-0.2,0.7-0.2c0.1,0,0.2,0.1,0.2,0.2c0,0.1-0.1,0.2-0.2,0.4s-0.3,0.5-0.5,0.8s-0.4,0.7-0.6,1.1c-0.2,0.4-0.4,0.8-0.5,1.2
	s-0.2,0.7-0.2,0.9c0,0.3,0.1,0.5,0.2,0.6s0.3,0.2,0.5,0.2c0.4,0,0.9-0.2,1.6-0.7s1.5-1.3,2.4-2.5h0.1c0,0,0,0,0,0.1
	c-0.3,0.4-0.7,0.9-1.1,1.3s-0.8,0.8-1.3,1.2c-0.4,0.4-0.9,0.7-1.3,0.9c-0.4,0.2-0.8,0.3-1.2,0.3c-0.3,0-0.5-0.1-0.7-0.2
	c-0.2-0.2-0.2-0.4-0.2-0.7c0-0.3,0.1-0.6,0.3-1c0.2-0.4,0.4-0.8,0.6-1.2c0.2-0.4,0.4-0.8,0.6-1.2s0.3-0.6,0.3-0.7
	c0-0.1,0-0.1-0.1-0.1S78,13.7,77.6,14c-0.4,0.3-0.9,0.8-1.4,1.6c-0.2,0.4-0.5,0.8-0.7,1.3c-0.2,0.4-0.5,0.8-0.6,1.2
	c-0.1,0.3-0.3,0.4-0.4,0.4s-0.2,0-0.3-0.1c-0.1,0-0.2-0.1-0.2-0.2s0-0.2,0.1-0.3c0.7-1.2,1.4-2.4,2-3.5c0.7-1.1,1.3-2.2,2-3.3
	c0.8-1.2,1.6-2.5,2.4-3.8s1.7-2.4,2.6-3.5c0.9-1,1.8-1.9,2.7-2.6c0.9-0.7,1.8-1,2.7-1c0.2,0,0.5,0,0.7,0.1s0.5,0.2,0.7,0.3
	s0.4,0.3,0.5,0.6C90.6,1.3,90.7,1.6,90.7,1.9z"/>
</svg>
